<svg aria-hidden="true" style="position: absolute; width: 0; height: 0; overflow: hidden;" version="1.1" xmlns="http://www.w3.org/2000/svg" xmlns:xlink="http://www.w3.org/1999/xlink">
<defs>
<symbol id="icon-menu" viewBox="0 0 53 32">
<path stroke-linejoin="miter" stroke-linecap="round" stroke-miterlimit="4" stroke-width="4.5714" d="M2.286 2.286h48"></path>
<path stroke-linejoin="miter" stroke-linecap="round" stroke-miterlimit="4" stroke-width="4.5714" d="M2.286 16h48"></path>
<path stroke-linejoin="miter" stroke-linecap="round" stroke-miterlimit="4" stroke-width="4.5714" d="M2.286 29.714h48"></path>
</symbol>
<symbol id="icon-close" viewBox="0 0 30 32">
<path stroke-linejoin="miter" stroke-linecap="round" stroke-miterlimit="4" stroke-width="3.5556" d="M1.781 28.885l25.77-25.77"></path>
<path stroke-linejoin="miter" stroke-linecap="round" stroke-miterlimit="4" stroke-width="3.5556" d="M27.552 28.885l-25.77-25.77"></path>
</symbol>
<symbol id="icon-advantages-1" viewBox="0 0 32 32">
<path d="M7.262 25.806h16.976c.084-1.981-.055-5.269-1.245-6.833l-.043-.056-2.601-1.337c.056-.195.084-.374.095-.505a.944.944 0 0 0-.063-.44c-.429-1.051-1.337-1.604-1.837-1.839.152-.314.25-.651.298-.995a.847.847 0 0 0 .585-.617l.304-1.262a.868.868 0 0 0-.282-.867c.856-1.99-.578-3.866-.656-3.965-1.553-1.718-3.514-1.397-3.618-1.378-2.83.607-3.923 2.827-3.306 5.431a.871.871 0 0 0-.192.779l.305 1.264c.074.304.3.532.58.615.087.63.347 1.201.73 1.66v1.001c-4.062 2.129-1.488.771-4.743 2.456-.006.031-1.527 1.686-1.301 6.589l.014.3zm16.386-.629h-2.794v-1.201l1.848-4.329c.926 1.572.96 4.575.946 5.53zm-3.813-8.155c-.108 1.268-.787.884-1.206 1.861-.33-.371-.429-.816-.34-1.293.16-.875-.362-1.134-.233-2.054l.02-.021v-.003c.011-.013.114-.138.144-.178 1.105.493 1.638 1.41 1.616 1.687zm-5.93-.996a3.089 3.089 0 0 0 3.533.048c.071.723.347.867.249 1.399a2.491 2.491 0 0 0-.034.292L15.75 19.96l-2.432-2.806.587-.314v-.814zm-.765-2.686V9.985c.296-.56.7-.967 1.201-1.211 1.344.778 2.89 1.939 3.928 3.108-.001 1.488.004 1.492-.006 1.615l-.001.008c-.081 1.351-1.167 2.472-2.559 2.472-1.354 0-2.477-1.088-2.559-2.485-.004-.05-.005-.1-.005-.151zm-.379 4.117 2.989 3.449 2.007-2.315c.046.135.11.263.184.386L15.75 21.78l-3.266-4.181.277-.143zm6.12-4.623v-.972l.228-.268c.013.492.064-.089-.228 1.239zm-3.592-6.503c.121.008 1.752-.254 3.042 1.17.051.065 1.1 1.449.679 2.963-.144-.674-.396-1.537-.793-1.949l-.434.443c.392.407.65 1.646.748 2.288-1.8-1.928-4.122-3.148-4.154-3.169-.116.074-1.099.265-1.813 1.685l-.034.068v1.043l-.09.001c-.453-2.241.415-4.021 2.85-4.543zm-2.915 5.19.154.64v.673l-.257-1.063c-.038-.158.077-.219.102-.25zm-.45 6.366 3.826 4.898 2.589-3.314c.282.258.417.295 1.014.609l-.201-.699c-.051-.177.151-.462.273-.593.273-.151.5-.367.67-.634l2.112 1.086-1.966 4.605v1.333h-8.984v-1.333L9.291 19.24l2.632-1.352zm-3.126 1.761 1.848 4.328v1.201H7.852c-.014-.955.021-3.956.946-5.529z"/>
<path stroke-width="1.032" d="M31.484 4.767V.517H.516v30.968h30.968v-4.25"/>
</symbol>
<symbol id="icon-advantages-2" viewBox="0 0 32 32">
<path d="M25.269 5.161H14.825c-.68 0-1.233.551-1.233 1.229v4.31l-7.759 3.247a.252.252 0 0 0-.032.448l.99.59v6.292a1.138 1.138 0 0 0-.886 1.107v.607c0 .139.113.252.253.252H7.93a.253.253 0 0 0 .253-.252v-.607c0-.54-.38-.99-.886-1.106v-5.991l.782.467c-.024.18-.003-.313-.011 2.929 0 1.066 2.739 1.637 5.525 1.67v4.91a1.233 1.233 0 0 0 1.232 1.227h10.444c.679 0 1.232-.551 1.232-1.228V6.389c0-.669-.555-1.229-1.231-1.229zM7.676 22.385v.355H6.409v-.355a.633.633 0 1 1 1.267 0zm17.593 3.602H14.825a.728.728 0 0 1-.727-.723v-1.702h11.896v1.703a.73.73 0 0 1-.725.722zm.725-2.929H14.097v-2.702c1.361-.016 5.529-.314 5.529-1.671-.002-2.037.004-2.863-.006-2.933l2.269-1.355a.25.25 0 0 0-.032-.448l-7.759-3.247V8.598h11.897v14.461zm-12.15-6.046c-1.402 0-4.1.18-5.273.944.007-2.335-.081-2.182.207-2.38.728-.535 2.811-.908 5.066-.908.983 0 5.276.27 5.276 1.176v2.113c-1.183-.77-3.868-.944-5.276-.944zm.254-10.621c0-.399.326-.724.726-.724h10.444c.401 0 .725.33.725.724v1.702H14.097V6.391zm-.254 4.75 7.356 3.078-1.823 1.087c-.969-.958-4.175-1.144-5.533-1.144-1.361 0-4.566.186-5.533 1.144l-1.823-1.088 7.357-3.078zm-5.272 7.543c0-.408 1.811-1.169 5.273-1.169 3.464 0 5.276.761 5.276 1.169s-1.812 1.169-5.276 1.169c-3.462 0-5.273-.761-5.273-1.169z"/>
<path d="M20.046 23.942c-.461 0-.836.374-.836.833a.836.836 0 0 0 1.672 0 .835.835 0 0 0-.836-.833zm0 1.162a.33.33 0 1 1 0-.66.33.33 0 0 1 0 .66zM21.01 6.628h-1.928v.504h1.928v-.504z"/>
<path stroke-width="1.032" d="M31.484 4.767V.517H.516v30.968h30.968v-4.25"/>
</symbol>
<symbol id="icon-advantages-3" viewBox="0 0 32 32">
<path d="M7.582 14.543c0 .23-.356.23-.356 0 0-4.895 4.045-8.866 9.032-8.866 4.989 0 9.032 3.97 9.032 8.866 0 .23-.354.23-.354 0 0-3.309-5.54-3.311-5.54 0 0 .23-.365.23-.365 0 0-3.301-5.548-3.301-5.548 0 0 .23-.365.23-.365 0 0-3.294-5.537-3.317-5.537 0zm5.569-1.285c.096-1.905.401-3.612.844-4.916.354-1.036.802-1.823 1.309-2.265-3.808.408-6.891 3.242-7.58 6.917 1.311-1.856 4.339-1.708 5.427.264zm5.853-.086c-.098-1.831-.394-3.47-.821-4.72-1.1-3.234-2.751-3.234-3.851 0-.426 1.25-.721 2.888-.821 4.72 1.183-1.974 4.309-1.974 5.493 0zm5.787-.178c-.687-3.675-3.77-6.509-7.58-6.917.51.442.955 1.229 1.309 2.265.444 1.304.748 3.012.844 4.916 1.094-1.982 4.13-2.099 5.427-.264zM15.073 18.6v-1.8c-.331.216-.591.549-.591.955 0 .396.264.657.591.846zm.356.559c-.633-.285-1.301-.618-1.301-1.405 0-.812.629-1.218 1.301-1.522v2.927zM17.444 21.316v1.821c.335-.218.597-.553.597-.959 0-.4-.269-.67-.597-.862zm-.354-.561c.635.289 1.307.632 1.307 1.423 0 .814-.633 1.22-1.307 1.522v-2.945z"/>
<path d="M17.444 14.751c1.458.331 2.957 1.402 2.957 3.004 0 1.371-2.36 1.321-2.36 0 0-.408-.262-.743-.597-.959v2.562c1.35.433 2.962 1.21 2.962 2.821 0 1.603-1.499 2.673-2.962 3.001-.006 1.526-2.367 1.524-2.371-.002-.832-.188-1.554-.569-2.077-1.074-.548-.532-.872-1.199-.872-1.926 0-1.35 2.358-1.35 2.358 0 0 .404.26.737.591.952v-2.56c-1.339-.425-2.96-1.224-2.96-2.821 0-1.603 1.499-2.673 2.96-3.001.006-1.526 2.367-1.524 2.371.002zm-2.015.004v.278c-1.388.27-2.962 1.143-2.962 2.717 0 1.513 1.727 2.191 2.962 2.566v3.382c-.667-.299-1.301-.703-1.301-1.52 0-.892-1.65-.892-1.65 0 0 .63.286 1.212.768 1.677.612.594 1.354.877 2.183 1.038v.28c0 1.074 1.661 1.074 1.661 0v-.278c1.392-.272 2.96-1.145 2.96-2.717 0-1.528-1.723-2.185-2.96-2.568v-3.38c.67.299 1.307.703 1.307 1.524 0 .869 1.648.904 1.648 0 0-1.572-1.565-2.447-2.955-2.719v-.28c0-1.074-1.661-1.074-1.661 0z"/>
<path stroke-width="1.032" d="M31.484 4.767V.517H.516v30.968h30.968v-4.25"/>
</symbol>
<symbol id="icon-campfire-hero" viewBox="0 0 28 32">
<path d="M28.799 21.831c-0.373-0.836-0.887-1.659-1.639-2.609-1.896-2.386-2.474-7.706-2.481-7.757-0.026-0.255-0.206-0.466-0.443-0.542-0.244-0.077-0.508-0.006-0.681 0.185-2.262 2.533-1.311 6.443-0.797 8.006 0.141 0.427 0.296 0.931 0.405 1.442 0.835 4.127-0.778 5.996-1.157 6.373-0.366 0.102-0.617 0.051-0.848-0.198-0.797-0.874-1.060-3.738-0.688-7.47 0.077-0.759 0.058-1.442-0.051-2.080-0.786-4.587-3.668-7.529-4.402-8.561-2.018-2.985-2.224-7.955-2.23-7.999-0.006-0.236-0.141-0.447-0.353-0.549-0.206-0.102-0.456-0.089-0.649 0.045-3.368 2.29-3.078 7.808-2.609 10.889 0.109 0.714 0.321 1.442 0.688 2.36 1.305 3.285-0.257 7.527-0.27 7.566s-0.026 0.070-0.032 0.108c-0.199 1.046-0.533 1.671-0.906 1.671-0.039 0-0.077-0.006-0.122-0.019-0.456-0.096-0.694-0.581-0.7-1.002-0.026-5.441-5.482-7.272-5.54-7.291-0.244-0.077-0.514-0.006-0.681 0.191-0.174 0.198-0.206 0.472-0.090 0.702 0.064 0.134 0.27 0.721 0.129 2.794-0.122 1.863-0.463 3.706-1.009 5.473-1.298 4.236-1.093 8.248-1.080 8.439 0.998 10.864 16.609 12.768 25.873 6.647 1.015-0.67 1.844-1.435 2.455-2.277 3.419-4.721 1.407-11.131-0.090-14.538zM5.053 32.21c0.019 0.351-0.251 0.651-0.604 0.67h-0.039c-0.341 0-0.623-0.262-0.643-0.6-0.058-0.931-0.045-1.907 0.026-2.966 0.026-0.351 0.334-0.612 0.688-0.593 0.353 0.026 0.623 0.332 0.598 0.683-0.071 1.008-0.084 1.927-0.026 2.807zM5.368 26.558c-0.039 0.325-0.315 0.561-0.636 0.561-0.026 0-0.051 0-0.084-0.006-0.347-0.045-0.598-0.357-0.559-0.708l0.308-2.462c0.045-0.344 0.36-0.593 0.72-0.555 0.353 0.045 0.604 0.364 0.559 0.714l-0.308 2.456z"></path>
<path d="M24.451 8.727c-0.351-0.054-0.591-0.379-0.537-0.727 0.040-0.259 0.272-1.586 0.902-2.253 0.243-0.257 0.649-0.271 0.908-0.029 0.259 0.241 0.272 0.644 0.029 0.902-0.267 0.283-0.494 1.091-0.57 1.575-0.054 0.344-0.378 0.586-0.733 0.533z"></path>
<path d="M1.023 11.905c-0.123-0.474-0.429-1.257-0.722-1.512-0.267-0.232-0.294-0.635-0.060-0.9s0.639-0.292 0.907-0.059c0.693 0.603 1.054 1.901 1.12 2.154 0.088 0.341-0.119 0.688-0.462 0.776-0.351 0.088-0.695-0.123-0.783-0.459z"></path>
</symbol>
<symbol id="icon-how-do-we-1" viewBox="0 0 30 32">
<path d="M29.977 4.975c0-0.001-0.001-0.001-0.001-0.002-0.007-0.016-0.015-0.031-0.024-0.045-0.001-0.001-0.002-0.002-0.002-0.003-0.010-0.015-0.021-0.029-0.034-0.042l-4.848-4.799c-0.013-0.012-0.026-0.023-0.041-0.033-0.003-0.002-0.006-0.004-0.009-0.006-0.012-0.007-0.024-0.014-0.036-0.019-0.004-0.002-0.007-0.003-0.011-0.005-0.032-0.013-0.066-0.019-0.1-0.020-0.002 0-0.004-0-0.005-0h-21.357c-0.158 0-0.286 0.127-0.286 0.284v29.271c0 0.019 0.002 0.037 0.006 0.056 0.002 0.008 0.005 0.015 0.007 0.023 0.003 0.010 0.006 0.020 0.009 0.030 0.004 0.009 0.009 0.017 0.014 0.026 0.004 0.007 0.008 0.016 0.013 0.023 0.010 0.014 0.021 0.028 0.033 0.040 0.001 0.001 0.001 0.002 0.003 0.003l2.183 2.161c0.112 0.111 0.293 0.111 0.405 0l1.982-1.961 1.981 1.961c0.056 0.056 0.129 0.083 0.203 0.083s0.146-0.027 0.202-0.083l1.981-1.96 1.982 1.96c0.112 0.111 0.293 0.111 0.405 0l1.981-1.96 1.981 1.96c0.112 0.111 0.293 0.111 0.405 0l1.982-1.961 1.981 1.961c0.056 0.056 0.129 0.083 0.202 0.083s0.147-0.027 0.203-0.083l1.981-1.96 1.982 1.96c0.112 0.111 0.293 0.111 0.405 0l2.183-2.161c0.004-0.004 0.007-0.009 0.011-0.014 0.008-0.009 0.017-0.019 0.024-0.029 0.007-0.009 0.011-0.020 0.017-0.030 0.003-0.007 0.007-0.012 0.009-0.019 0.006-0.013 0.009-0.026 0.012-0.039 0.001-0.005 0.003-0.009 0.005-0.013 0.004-0.019 0.006-0.038 0.006-0.058v-24.47c-0.001-0.037-0.008-0.074-0.023-0.108zM25.151 0.969l3.869 3.83h-3.869v-3.83zM29.426 29.437l-1.896 1.878-1.982-1.961c-0.112-0.11-0.293-0.11-0.405 0l-1.981 1.961-1.981-1.961c-0.112-0.11-0.293-0.11-0.405 0l-1.982 1.961-1.98-1.96c0-0-0-0.001-0-0.001-0.056-0.055-0.129-0.083-0.203-0.083s-0.147 0.028-0.202 0.083c-0 0-0 0-0 0l-1.98 1.961-1.982-1.961c-0.112-0.11-0.293-0.11-0.405 0l-1.981 1.961-1.981-1.961c-0.112-0.11-0.293-0.11-0.405 0l-1.982 1.961-1.897-1.878v-28.87h20.783v4.516c0 0.157 0.128 0.284 0.287 0.284h4.561l0 24.071z"></path>
<path d="M5.931 3.251h9.384c0.158 0 0.287-0.127 0.287-0.284s-0.128-0.284-0.287-0.284h-9.384c-0.159 0-0.287 0.127-0.287 0.284s0.128 0.284 0.287 0.284z"></path>
<path d="M5.931 5.005h15.049c0.158 0 0.287-0.127 0.287-0.284s-0.128-0.284-0.287-0.284h-15.049c-0.159 0-0.287 0.127-0.287 0.284s0.128 0.284 0.287 0.284z"></path>
<path d="M5.645 6.58v9.186c0 0.157 0.128 0.284 0.287 0.284h21.357c0.158 0 0.286-0.127 0.286-0.284v-9.186c0-0.157-0.128-0.284-0.286-0.284h-21.357c-0.159 0-0.287 0.127-0.287 0.284zM11.978 6.864h15.024v2.442h-15.024v-2.442zM11.978 9.873h15.024v2.441h-15.024v-2.441zM11.978 12.881h15.024v2.602h-15.024v-2.602zM6.218 6.864h5.187v2.442h-5.187v-2.442zM6.218 9.873h5.187v2.441h-5.187v-2.441zM6.218 12.881h5.187v2.602h-5.187v-2.602z"></path>
<path d="M27.289 17.327h-21.357c-0.159 0-0.287 0.127-0.287 0.284v9.186c0 0.157 0.128 0.283 0.287 0.283s0.286-0.127 0.286-0.283v-2.885h5.187v2.885c0 0.157 0.128 0.283 0.286 0.283s0.287-0.127 0.287-0.283v-2.885h15.024v2.885c0 0.157 0.128 0.283 0.287 0.283s0.286-0.127 0.286-0.283v-9.186c0.001-0.157-0.127-0.284-0.286-0.284zM11.405 23.344h-5.187v-2.44h5.187v2.44zM11.405 20.336h-5.187v-2.441h5.187v2.441zM27.002 23.344h-15.024v-2.44h15.024v2.44zM27.002 20.336h-15.024v-2.441h15.024v2.441z"></path>
<path d="M1.863 0c-0.158 0-0.287 0.127-0.287 0.284v29.271c0 0.156 0.128 0.283 0.287 0.283s0.287-0.127 0.287-0.283v-29.271c0-0.157-0.128-0.284-0.287-0.284z"></path>
<path d="M0.287 0c-0.158 0-0.287 0.127-0.287 0.284v29.271c0 0.156 0.128 0.283 0.287 0.283s0.286-0.127 0.286-0.283v-29.271c0-0.157-0.128-0.284-0.286-0.284z"></path>
</symbol>
<symbol id="icon-how-do-we-2" viewBox="0 0 31 32">
<path d="M29.467 0h-15.709c-1.023 0-1.855 0.827-1.855 1.844v6.466l-11.671 4.871c-0.132 0.055-0.222 0.179-0.232 0.321s0.061 0.278 0.184 0.351l1.488 0.886v9.439c-0.761 0.173-1.332 0.85-1.332 1.66v0.91c0 0.209 0.17 0.378 0.38 0.378h2.665c0.21 0 0.38-0.169 0.38-0.378v-0.91c0-0.809-0.571-1.486-1.333-1.659v-8.988l1.177 0.7c-0.036 0.27-0.005-0.47-0.017 4.395 0 1.599 4.119 2.456 8.311 2.505v7.366c0 0.381 0.117 0.734 0.317 1.028 0.333 0.49 0.898 0.813 1.536 0.813h15.709c1.022 0 1.853-0.827 1.853-1.842 0 0.050-0.002-1.56 0-28.313 0-1.003-0.834-1.844-1.852-1.844zM3.006 25.839v0.532h-1.905v-0.532c0-0.524 0.426-0.95 0.95-0.95 0.527 0 0.955 0.426 0.955 0.95zM29.467 31.242h-15.709c-0.377 0-0.71-0.19-0.907-0.478-0.118-0.173-0.187-0.382-0.187-0.607v-2.554h17.893v2.555c0 0.592-0.496 1.084-1.090 1.084zM30.557 26.848h-17.893v-4.054c2.046-0.023 8.316-0.471 8.316-2.507-0.002-3.056 0.005-4.295-0.010-4.4l3.413-2.033c0.123-0.073 0.194-0.209 0.184-0.351s-0.1-0.266-0.232-0.321l-11.67-4.871v-3.157h17.893v21.695zM12.284 17.778c-2.108 0-6.167 0.271-7.931 1.416 0.011-3.502-0.122-3.274 0.312-3.571 1.095-0.802 4.228-1.362 7.619-1.362 1.479 0 7.936 0.404 7.936 1.764v3.17c-1.78-1.156-5.818-1.416-7.936-1.416zM12.664 1.844c0-0.599 0.49-1.087 1.093-1.087h15.709c0.603 0 1.091 0.494 1.091 1.086v2.554h-17.893v-2.553zM12.284 8.971l11.064 4.618-2.741 1.631c-1.458-1.437-6.279-1.716-8.323-1.716-2.046 0-6.868 0.28-8.322 1.716l-2.742-1.632 11.065-4.618zM4.353 20.287c0-0.612 2.724-1.753 7.931-1.753 5.21 0 7.936 1.142 7.936 1.753s-2.726 1.754-7.936 1.754c-5.207 0-7.931-1.142-7.931-1.754z"></path>
<path d="M21.611 28.174c-0.693 0-1.257 0.56-1.257 1.25s0.564 1.25 1.257 1.25c0.693 0 1.257-0.561 1.257-1.25s-0.564-1.25-1.257-1.25zM21.611 29.918c-0.274 0-0.497-0.222-0.497-0.495s0.223-0.494 0.497-0.494c0.274 0 0.497 0.221 0.497 0.494s-0.223 0.495-0.497 0.495z"></path>
<path d="M23.062 2.2h-2.899v0.756h2.899v-0.756z"></path>
</symbol>
<symbol id="icon-how-do-we-3" viewBox="0 0 43 32">
<path d="M19.102 4.52h-13.659v1.028h13.659v-1.028z"></path>
<path d="M19.101 8.357h-11.613v1.028h11.613v-1.028z"></path>
<path d="M19.102 12.195h-13.659v1.028h13.659v-1.028z"></path>
<path d="M19.101 16.032h-11.613v1.028h11.613v-1.028z"></path>
<path d="M19.102 19.869h-13.659v1.028h13.659v-1.028z"></path>
<path d="M19.101 23.707h-11.613v1.028h11.613v-1.028z"></path>
<path d="M37.851 4.52h-13.659v1.028h13.659v-1.028z"></path>
<path d="M35.805 8.357h-11.613v1.028h11.613v-1.028z"></path>
<path d="M37.851 12.195h-13.659v1.028h13.659v-1.028z"></path>
<path d="M35.805 16.032h-11.613v1.028h11.613v-1.028z"></path>
<path d="M37.851 19.869h-13.659v1.028h13.659v-1.028z"></path>
<path d="M35.805 23.707h-11.613v1.028h11.613v-1.028z"></path>
<path d="M42.783 3.348h-1.875v-2.834c0-0.284-0.229-0.515-0.511-0.515h-15.286c-1.492 0-2.785 0.812-3.463 2.026-0.679-1.215-1.972-2.026-3.464-2.026h-15.286c-0.282 0-0.511 0.231-0.511 0.515v2.834h-1.875c-0.282 0-0.511 0.231-0.511 0.515v27.622c0 0.284 0.229 0.515 0.511 0.515 5.134 0 37.119 0 42.271 0 0.282 0 0.511-0.23 0.511-0.515v-27.622c0-0.284-0.229-0.515-0.511-0.515zM25.111 1.029h14.774c0 4.608 0 16.747 0 27.561h-15.865c-0.703 0-1.406 0.299-1.861 0.685v-25.282c0-1.643 1.307-2.964 2.952-2.964zM3.409 1.029h14.774c1.599 0 2.893 1.252 2.946 2.851 0.001 0.022 0.003 0.091 0.006 0.113v25.28c-0.454-0.386-1.149-0.683-1.855-0.683h-15.872c0-10.811 0-22.954 0-27.561zM1.023 4.378h1.364v24.727c0 0.284 0.229 0.515 0.511 0.515h16.383c0.78 0 1.533 0.515 1.774 1.351h-20.032v-26.593zM42.271 30.971h-20.032c0.243-0.841 0.989-1.351 1.78-1.351h16.377c0.282 0 0.511-0.23 0.511-0.515v-24.727h1.364v26.593z"></path>
</symbol>
<symbol id="icon-how-do-we-4" viewBox="0 0 32 32">
<path d="M1.979 12.558v2.831c0 0.152 0.069 0.295 0.188 0.39 1.921 1.523 4.332 2.362 6.788 2.362 0.735 0 1.471-0.077 2.19-0.224 1.533 0.683 3.165 1.032 4.855 1.032 1.695 0 3.327-0.349 4.855-1.032 3.069 0.624 6.338-0.046 8.977-2.138 0.119-0.094 0.188-0.238 0.188-0.39v-2.831c0-0.416-0.205-0.794-0.571-1.027l-3.839-2.176c0.84-1.073 1.466-2.602 1.574-3.913 0.319-2.256-1.507-4.646-4.136-4.646-1.105 0-2.156 0.458-2.927 1.227-0.027 0.027-0.057 0.049-0.083 0.076-0.024 0.025-0.043 0.054-0.066 0.080-0.015 0.017-0.029 0.036-0.044 0.053-0.751-1.38-2.195-2.232-3.896-2.232-0.165 0-0.328 0.011-0.488 0.028-0.010-0.001-0.018-0.006-0.028-0.006-0.091 0-0.285 0.024-0.388 0.054-0.015 0.004-0.026 0.015-0.041 0.021-1.27 0.259-2.346 1.034-2.991 2.156-0.776-0.911-1.916-1.457-3.156-1.457-3.88 0-5.601 4.612-2.539 8.581l-3.875 2.167c-0.344 0.219-0.549 0.598-0.549 1.014zM20.846 16.828c-0.083 0.041-0.166 0.085-0.25 0.123l-0 0c-0.001 0-0.001 0.001-0.002 0.001-1.442 0.667-2.987 1.006-4.594 1.006-1.602 0-3.148-0.338-4.596-1.007-0.705-0.323-1.387-0.734-2.030-1.221v-2.87c0-0.098 0.047-0.184 0.101-0.221l4.509-2.524c0.561 0.48 1.278 0.832 2.020 0.832 0.715 0 1.488-0.357 2.038-0.843l4.455 2.52c0.082 0.053 0.129 0.139 0.129 0.237v2.87c-0.567 0.429-1.164 0.795-1.781 1.098zM28.945 12.382c0.058 0.037 0.091 0.101 0.091 0.176v2.587c-1.954 1.477-4.306 2.148-6.688 1.98 0.367-0.23 0.766-0.516 1.075-0.76 0.119-0.094 0.188-0.238 0.188-0.39v-3.114c0-0.435-0.217-0.835-0.606-1.087l-2.366-1.339 0.575-0.321c0.698 0.573 1.297 0.744 1.835 0.744 0.658 0 1.35-0.325 1.864-0.759l4.031 2.284zM23.050 1.788c1.371 0 2.574 0.902 3 2.142-0.827-0.099-1.636-0.51-2.221-1.142-0.106-0.114-0.256-0.173-0.413-0.155-0.154 0.016-0.291 0.105-0.37 0.239-0.562 0.948-1.482 1.58-2.529 1.76 0-0.001-0-0.002-0-0.003 0.005-0.216-0.008-0.434-0.032-0.653-0.002-0.022-0.005-0.044-0.007-0.067-0.032-0.248-0.106-0.559-0.121-0.609 0.559-0.902 1.598-1.513 2.694-1.513zM20.409 5.644c1.244-0.137 2.369-0.767 3.142-1.762 0.762 0.629 1.728 1.010 2.682 1.056-0.007 1.792-1.461 4.927-3.183 4.927-1.328 0-2.461-1.912-2.885-3.238 0.108-0.341 0.186-0.669 0.244-0.983zM20.509 9.373l-0.88 0.491-0.888-0.502c0.329-0.413 0.631-0.893 0.89-1.413 0.249 0.526 0.546 1.010 0.878 1.425zM19.182 6.465c-0.475 1.427-1.693 3.49-3.176 3.49-1.73 0-3.203-2.864-3.483-4.696 0.075-0.019 2.412 0.126 4.020-2.001 0.816 0.688 1.918 1.143 2.989 1.188 0.013 0.647-0.143 1.406-0.35 2.018zM16.034 0.992c2.76 0 3.285 2.392 3.328 2.442-1.001-0.102-1.914-0.596-2.545-1.276-0.106-0.114-0.26-0.171-0.413-0.154s-0.291 0.106-0.371 0.241c-0.547 0.932-1.404 1.589-2.397 1.868-0.383 0.108-0.797 0.157-1.158 0.154 0.135-1.822 1.585-3.274 3.555-3.274zM12.372 7.938c0.255 0.515 0.559 1.006 0.906 1.438l-0.869 0.487-0.9-0.51c0.341-0.438 0.631-0.929 0.863-1.415zM8.942 1.788c1.117 0 2.14 0.571 2.71 1.514-0.029 0.1-0.106 0.498-0.116 0.548-0.685-0.165-1.314-0.533-1.808-1.062-0.106-0.114-0.256-0.17-0.413-0.154-0.154 0.017-0.291 0.106-0.37 0.24-0.659 1.119-1.867 1.815-3.154 1.815 0.157-1.627 1.507-2.9 3.151-2.9zM5.834 5.678c1.415-0.014 2.75-0.686 3.616-1.796 0.592 0.491 1.294 0.813 2.041 0.961 0.029 0.575 0.178 1.273 0.348 1.789-0.272 0.84-0.793 1.841-1.44 2.505-0.004 0.004-0.010 0.006-0.014 0.010-0.405 0.43-0.981 0.719-1.434 0.719-1.583 0-2.82-2.508-3.117-4.188zM2.964 12.558c0-0.075 0.033-0.139 0.067-0.162l4.086-2.284c0.245 0.206 0.302 0.229 0.351 0.265l-0 0c0.481 0.322 0.922 0.482 1.523 0.482 0.64 0 1.223-0.273 1.737-0.694 0.029-0.023 0.060-0.045 0.087-0.068l0.583 0.33-2.429 1.361c-0.363 0.236-0.58 0.636-0.58 1.071v3.114c0 0.152 0.069 0.296 0.188 0.39 0.314 0.249 0.722 0.539 1.075 0.761-2.417 0.166-4.768-0.528-6.689-1.98v-2.587z"></path>
<path d="M31.034 20.781c-0.606-0.383-1.351-0.423-1.993-0.11l-6.076 2.956c-0.021-1.145-0.949-2.071-2.092-2.071l-3.484 0.001c-1.718-1.504-3.913-2.425-5.909-2.473-1.968-0.047-3.735-0.060-4.56-0.064v-1.002h-6.922v11.517h6.922v-1.379c1.898 1.097 6.889 3.845 9.258 3.845 0.054 0 0.106-0.001 0.157-0.004 4.165-0.235 13.989-7.198 14.637-7.661 0.634-0.37 1.026-1.056 1.026-1.796 0-0.719-0.361-1.376-0.966-1.758zM5.937 28.542h-4.952v-9.533h4.952v9.533zM30.467 23.484c-0.015 0.008-0.030 0.017-0.044 0.028-0.101 0.073-10.207 7.271-14.142 7.494-0.039 0.002-0.078 0.003-0.12 0.003-2.077 0-7.143-2.753-9.24-4.001v-6.997c0.821 0.004 2.578 0.017 4.536 0.064 1.824 0.044 3.848 0.921 5.416 2.346l0.14 0.128 3.86-0.001c0.612 0 1.111 0.502 1.111 1.119s-0.498 1.119-1.111 1.119h-7.091v0.992h7.091c0.68 0 1.278-0.333 1.662-0.839l6.934-3.373c0.34-0.167 0.72-0.146 1.041 0.057s0.504 0.537 0.504 0.918c0 0.391-0.21 0.753-0.549 0.945z"></path>
<path d="M16.492 12.159h-0.985v0.92h0.985v-0.92z"></path>
<path d="M16.492 13.992h-0.985v0.92h0.985v-0.92z"></path>
<path d="M16.492 15.826h-0.985v0.92h0.985v-0.92z"></path>
</symbol>
<symbol id="icon-how-do-we-5" viewBox="0 0 29 32">
<path d="M0.061 32c3.652 0 24.779 0 28.427 0 0.141-3.15-0.091-8.376-2.085-10.863l-0.072-0.089-4.355-2.125c0.095-0.31 0.141-0.594 0.16-0.802 0.022-0.25-0.014-0.486-0.106-0.699-0.719-1.671-2.239-2.55-3.075-2.924 0.255-0.499 0.419-1.034 0.498-1.582 0.473-0.13 0.854-0.494 0.979-0.98l0.508-2.007c0.090-0.354 0.034-0.721-0.16-1.033-0.083-0.135-0.191-0.248-0.312-0.345 1.433-3.163-0.967-6.146-1.098-6.303-2.6-2.731-5.884-2.221-6.058-2.19-4.74 0.964-6.569 4.494-5.536 8.633-0.306 0.329-0.434 0.788-0.321 1.238l0.511 2.009c0.124 0.483 0.502 0.846 0.972 0.977 0.145 1.002 0.582 1.909 1.223 2.639v1.591c-6.802 3.384-2.492 1.225-7.943 3.904-0.011 0.050-2.558 2.68-2.179 10.475l0.023 0.476zM27.501 31h-4.679v-1.91l3.094-6.883c1.55 2.5 1.608 7.273 1.584 8.792zM21.115 18.035c-0.181 2.015-1.318 1.406-2.020 2.958-0.552-0.59-0.718-1.297-0.57-2.055 0.268-1.391-0.605-1.804-0.39-3.265l0.033-0.033v-0.005c0.019-0.020 0.191-0.219 0.241-0.282 1.851 0.784 2.742 2.242 2.706 2.681zM11.185 16.452c0.859 0.579 1.897 0.921 3.012 0.921 1.051 0 2.049-0.297 2.904-0.844 0.119 1.149 0.581 1.379 0.417 2.224-0.031 0.157-0.047 0.311-0.057 0.464l-3.186 3.489-4.073-4.462 0.983-0.499v-1.293zM9.904 12.182v-1.934c0-0.712 0-3.538 0-3.399 0.496-0.891 1.172-1.537 2.012-1.925 2.25 1.237 4.84 3.083 6.577 4.941-0.002 2.366 0.007 2.372-0.009 2.567l-0.001 0.012c-0.136 2.148-1.954 3.929-4.285 3.929-2.267 0-4.149-1.729-4.285-3.951-0.007-0.080-0.008-0.159-0.008-0.241zM9.27 18.726l5.005 5.482 3.36-3.68c0.077 0.215 0.185 0.418 0.308 0.614l-3.668 4.457-5.47-6.647 0.465-0.227zM19.518 11.377v-1.545c0.045-0.050 0.427-0.476 0.382-0.426 0.021 0.782 0.108-0.141-0.382 1.97zM13.502 1.039c0.203 0.012 2.935-0.404 5.093 1.861 0.085 0.104 1.842 2.303 1.136 4.71-0.242-1.071-0.663-2.443-1.328-3.098l-0.728 0.704c0.657 0.647 1.089 2.616 1.253 3.637-3.015-3.065-6.903-5.005-6.957-5.037-0.195 0.118-1.841 0.422-3.036 2.679l-0.057 0.108v1.658c-0.051 0.001-0.202 0.002-0.151 0.002-0.759-3.562 0.695-6.392 4.773-7.222zM8.621 9.29l0.259 1.018v1.070l-0.43-1.69c-0.063-0.252 0.129-0.347 0.171-0.398zM7.867 19.41l6.408 7.786 4.335-5.268c0.472 0.41 0.698 0.468 1.698 0.968l-0.337-1.111c-0.086-0.282 0.253-0.735 0.458-0.943 0.457-0.241 0.837-0.584 1.122-1.008l3.537 1.726-3.291 7.322v2.119h-15.045v-2.119l-3.293-7.32 4.408-2.15zM2.633 22.21l3.095 6.881v1.909h-4.679c-0.024-1.519 0.035-6.289 1.584-8.79z"></path>
</symbol>
<symbol id="icon-how-do-we-6" viewBox="0 0 37 32">
<path d="M2.318 29.826h12.404c0.629 1.321 1.944 2.174 3.428 2.174h0.783c1.486 0 2.8-0.853 3.429-2.174h12.41c1.278 0 2.318-1.054 2.318-2.349v-22.512c0-1.295-1.040-2.349-2.318-2.349h-1.252v-1.049c0-0.864-0.693-1.566-1.545-1.566h-26.867c-0.852 0-1.545 0.702-1.545 1.566v1.049h-1.244c-1.278 0-2.318 1.054-2.318 2.349v22.512c0 1.295 1.040 2.349 2.318 2.349zM31.974 24.994h-12.656v-18.196c2.925 0.388 5.193 2.924 5.193 5.992v0.706l-0.183-0.041c-0.199-0.043-0.408-0.007-0.582 0.105s-0.295 0.289-0.339 0.492l-1.23 5.672c-0.091 0.422 0.172 0.839 0.589 0.932l2.658 0.594c0.137 0.029 0.277 0.045 0.417 0.045 0.935 0 1.731-0.648 1.935-1.578l0.712-3.28c0.235-1.077-0.439-2.148-1.505-2.388l-0.925-0.207v-1.051c0-3.934-2.959-7.179-6.739-7.575v-3.65h12.657l-0.001 23.428zM24.751 15.154l1.898 0.424c0.237 0.054 0.382 0.282 0.33 0.522l-0.712 3.28c-0.051 0.237-0.31 0.384-0.515 0.34l-1.9-0.424 0.899-4.142zM5.108 1.566h12.665v3.649c-3.784 0.391-6.746 3.64-6.746 7.576v1.051l-0.927 0.207c-0.516 0.116-0.957 0.428-1.24 0.877-0.284 0.451-0.378 0.988-0.263 1.509l0.71 3.277c0.192 0.917 1.007 1.583 1.936 1.583 0.14 0 0.279-0.015 0.422-0.046l2.647-0.593c0.416-0.093 0.679-0.51 0.588-0.932l-1.23-5.672c-0.044-0.203-0.166-0.38-0.339-0.492s-0.383-0.148-0.583-0.105l-0.177 0.040v-0.705c0-3.071 2.272-5.609 5.201-5.993v18.197h-12.665v-23.428zM12.327 15.154l0.899 4.141-1.89 0.423c-0.232 0.053-0.469-0.102-0.519-0.337l-0.712-3.284c-0.026-0.114-0.005-0.231 0.056-0.328 0.062-0.098 0.159-0.166 0.272-0.192l1.893-0.423zM1.545 4.964c0-0.432 0.346-0.783 0.773-0.783h1.244v20.813c0 0.864 0.694 1.566 1.545 1.566h26.867c0.852 0 1.545-0.702 1.545-1.566v-20.813h1.252c0.426 0 0.773 0.351 0.773 0.783v22.512c0 0.432-0.346 0.783-0.773 0.783h-12.936c-0.34 0-0.639 0.224-0.739 0.553-0.294 0.97-1.164 1.621-2.165 1.621h-0.783c-0.998 0-1.867-0.649-2.168-1.63-0.103-0.324-0.4-0.544-0.736-0.544h-12.928c-0.426 0-0.773-0.351-0.773-0.783v-22.512z"></path>
</symbol>
<symbol id="icon-teacher" viewBox="0 0 40 32">
<path d="M35.296 1.514c-1.521 0.664-2.978 1.475-4.369 2.379-2.797 1.797-5.355 3.936-7.754 6.218-2.398 2.287-4.63 4.735-6.741 7.28-0.528 0.636-2.892 3.47-2.892 3.47l-9.83-14.38-3.711 10.042 13.293 15.477c1.291-2.551 2.533-5.070 3.752-7.258 0.303-0.556 0.62-1.080 0.923-1.612 0 0 1.56-2.677 1.97-3.352 1.64-2.697 3.414-5.325 5.366-7.821 1.955-2.491 4.080-4.87 6.489-6.961 1.199-1.052 2.475-2.025 3.842-2.872 1.364-0.848 2.814-1.591 4.365-2.125-1.613 0.31-3.187 0.848-4.704 1.514z"></path>
</symbol>
<symbol id="icon-campfire-guarant" viewBox="0 0 23 32">
<path d="M21.909 16.593c-0.284-0.635-0.675-1.261-1.247-1.983-1.442-1.813-1.882-5.857-1.887-5.896-0.020-0.194-0.156-0.354-0.337-0.412-0.186-0.058-0.386-0.005-0.518 0.141-1.721 1.925-0.997 4.897-0.606 6.085 0.108 0.325 0.225 0.708 0.308 1.096 0.636 3.137-0.592 4.558-0.88 4.844-0.279 0.078-0.469 0.039-0.645-0.15-0.606-0.664-0.807-2.841-0.523-5.678 0.059-0.577 0.044-1.096-0.039-1.581-0.598-3.486-2.791-5.722-3.349-6.507-1.535-2.269-1.692-6.046-1.696-6.080-0.005-0.179-0.108-0.339-0.269-0.417-0.156-0.078-0.347-0.068-0.494 0.034-2.562 1.741-2.342 5.935-1.985 8.276 0.083 0.543 0.244 1.096 0.523 1.794 0.992 2.497-0.196 5.721-0.205 5.75s-0.020 0.053-0.024 0.082c-0.152 0.795-0.406 1.27-0.689 1.27-0.029 0-0.059-0.005-0.093-0.015-0.347-0.073-0.528-0.441-0.533-0.761-0.020-4.136-4.17-5.527-4.214-5.542-0.186-0.058-0.391-0.005-0.518 0.145-0.132 0.15-0.156 0.359-0.068 0.533 0.049 0.102 0.205 0.548 0.098 2.124-0.093 1.416-0.352 2.817-0.768 4.16-0.988 3.219-0.831 6.269-0.821 6.415 0.759 8.257 12.635 9.704 19.683 5.052 0.772-0.509 1.403-1.091 1.868-1.731 2.601-3.588 1.071-8.461-0.068-11.050zM3.845 24.481c0.015 0.267-0.191 0.494-0.46 0.509h-0.029c-0.259 0-0.474-0.199-0.489-0.456-0.044-0.708-0.034-1.45 0.020-2.255 0.020-0.267 0.254-0.465 0.523-0.451 0.269 0.019 0.474 0.252 0.455 0.519-0.054 0.766-0.064 1.464-0.020 2.133zM4.084 20.186c-0.029 0.247-0.24 0.427-0.484 0.427-0.020 0-0.039 0-0.064-0.005-0.264-0.034-0.455-0.272-0.425-0.538l0.235-1.871c0.034-0.262 0.274-0.451 0.548-0.422 0.269 0.034 0.46 0.276 0.425 0.543l-0.235 1.867z"></path>
<path d="M18.602 6.633c-0.267-0.041-0.45-0.288-0.408-0.553 0.030-0.197 0.207-1.205 0.686-1.713 0.185-0.196 0.493-0.206 0.691-0.022s0.207 0.49 0.022 0.685c-0.203 0.215-0.376 0.829-0.433 1.197-0.041 0.262-0.287 0.445-0.558 0.405z"></path>
<path d="M0.778 9.048c-0.094-0.361-0.326-0.955-0.549-1.149-0.203-0.177-0.223-0.483-0.045-0.684s0.486-0.222 0.69-0.045c0.527 0.458 0.802 1.445 0.852 1.638 0.067 0.259-0.091 0.523-0.352 0.59-0.267 0.067-0.529-0.094-0.595-0.349z"></path>
</symbol>
<symbol id="icon-arrow-lf" viewBox="0 0 54 32">
<path d="M52 14c1.105 0 2 0.895 2 2s-0.895 2-2 2v-4zM0.586 17.414c-0.781-0.781-0.781-2.047 0-2.828l12.728-12.728c0.781-0.781 2.047-0.781 2.828 0s0.781 2.047 0 2.828l-11.314 11.314 11.314 11.314c0.781 0.781 0.781 2.047 0 2.828s-2.047 0.781-2.828 0l-12.728-12.728zM52 18h-50v-4h50v4z"></path>
</symbol>
<symbol id="icon-arrow-rt" viewBox="0 0 54 32">
<path d="M2 14c-1.105 0-2 0.895-2 2s0.895 2 2 2v-4zM53.414 17.414c0.781-0.781 0.781-2.047 0-2.828l-12.728-12.728c-0.781-0.781-2.047-0.781-2.828 0s-0.781 2.047 0 2.828l11.314 11.314-11.314 11.314c-0.781 0.781-0.781 2.047 0 2.828s2.047 0.781 2.828 0l12.728-12.728zM2 18h50v-4h-50v4z"></path>
</symbol>
<symbol id="icon-facebook" viewBox="0 0 31 32">
<path d="M26.318 2.314h-21.551c-0.779 0-1.527 0.307-2.078 0.853s-0.861 1.287-0.861 2.060v21.363c0 0.773 0.31 1.514 0.861 2.060s1.299 0.853 2.078 0.853h8.403v-9.244h-3.857v-4.351h3.857v-3.316c0-3.772 2.265-5.856 5.735-5.856 1.662 0 3.399 0.294 3.399 0.294v3.702h-1.914c-1.886 0-2.475 1.16-2.475 2.351v2.825h4.211l-0.673 4.351h-3.538v9.244h8.403c0.779 0 1.527-0.307 2.078-0.853s0.861-1.287 0.861-2.060v-21.363c0-0.773-0.31-1.514-0.861-2.060s-1.299-0.853-2.078-0.853z"></path>
</symbol>
<symbol id="icon-insta-white" viewBox="0 0 32 32">
<path d="M0.528 10.029c0.103-0.724 0.181-1.452 0.311-2.171 0.739-4.072 3.622-6.842 7.743-6.984 4.963-0.171 9.941-0.18 14.903-0.001 4.486 0.161 7.735 3.483 7.875 7.971 0.149 4.765 0.149 9.542 0 14.307-0.14 4.488-3.388 7.809-7.875 7.971-4.962 0.179-9.941 0.184-14.903-0.003-4.487-0.169-7.589-3.498-7.889-7.992-0.026-0.389-0.109-0.774-0.166-1.161 0-3.979 0-7.958 0-11.937v0zM16.004 28.463c2.271 0 4.544 0.068 6.812-0.016 3.556-0.132 5.743-2.254 5.826-5.806 0.103-4.426 0.103-8.859 0-13.286-0.083-3.552-2.272-5.723-5.826-5.799-4.511-0.095-9.028-0.095-13.539 0-3.527 0.074-5.721 2.202-5.817 5.714-0.122 4.482-0.122 8.973 0 13.455 0.096 3.512 2.289 5.591 5.817 5.721 2.239 0.083 4.484 0.016 6.727 0.016v0z"></path>
<path d="M15.999 8.115c-4.355 0-7.885 3.53-7.885 7.885s3.531 7.885 7.885 7.885c4.355 0 7.885-3.53 7.885-7.885s-3.53-7.885-7.885-7.885zM15.999 21.17c-2.856 0-5.17-2.315-5.17-5.171s2.315-5.17 5.171-5.17c2.856 0 5.171 2.315 5.171 5.171s-2.315 5.171-5.171 5.171z"></path>
<path d="M26.222 7.755c0 1.036-0.84 1.876-1.876 1.876s-1.876-0.84-1.876-1.876c0-1.036 0.84-1.876 1.876-1.876s1.876 0.84 1.876 1.876z"></path>
</symbol>
<symbol id="icon-phone" viewBox="0 0 32 32">
<path d="M4.657 0.003c-0.515 0.025-1.021 0.253-1.392 0.678l-2.595 2.969c0.004-0.009-0.010-0.008-0.084 0.101-0.039 0.056-0.070 0.118-0.090 0.184-1.056 3.502-0.348 7.354 1.376 11.018s4.475 7.17 7.633 10.047c3.158 2.877 6.721 5.128 10.119 6.244s6.692 1.102 9.133-0.742c0.027-0.020 0.052-0.043 0.075-0.068 0.064-0.067 0.066-0.075 0.056-0.065l0.010-0.013 2.582-2.956c0.742-0.849 0.682-2.184-0.134-2.956l-6.126-5.799c-0.816-0.772-2.098-0.711-2.84 0.138l-2.772 3.173c-2.25-0.678-4.173-1.828-6.023-3.58s-3.132-3.637-3.993-5.905l2.771-3.173c0.742-0.849 0.683-2.184-0.133-2.956l-6.126-5.8c-0.408-0.386-0.933-0.564-1.448-0.539l-0.001 0zM4.715 1.304c0.19-0.009 0.383 0.060 0.541 0.209l6.126 5.8c0.316 0.299 0.337 0.776 0.050 1.104l-3.063 3.504c-0.077 0.089-0.129 0.197-0.151 0.314s-0.013 0.239 0.027 0.351c0.93 2.641 2.429 4.807 4.493 6.761s4.275 3.304 6.889 4.018c0.111 0.030 0.228 0.028 0.339-0.005s0.21-0.099 0.287-0.188l3.064-3.505c0.287-0.328 0.744-0.35 1.060-0.051l6.127 5.8c0.316 0.299 0.336 0.775 0.049 1.103l-2.561 2.93c-2.003 1.497-4.826 1.581-7.986 0.542-3.173-1.043-6.617-3.202-9.666-5.98s-5.702-6.169-7.332-9.633c-1.614-3.429-2.199-6.895-1.312-9.95l2.502-2.862c0.143-0.164 0.33-0.252 0.52-0.261l0 0z"></path>
</symbol>
</defs>
</svg>
