<svg aria-hidden="true" style="position:absolute;width:0;height:0;overflow:hidden" xmlns="http://www.w3.org/2000/svg">
  <defs>
  <!-- LOGO -->
      <symbol id="icon-logo" viewBox="0 0 91 32">
      <path fill="#111518" style="fill:var(--color1, #111518)" d="M14 5v13h-4v-5H5v5H1V5h4v5h5V5h4zm13 8v1h-7l1 1h2l1-1 2 2-4 2-3-1-2-2-1-2a5 5 0 0 1 3-5h5l2 2 1 3zm-5-3-2 1v1h4l-1-1-1-1zm7-6h4v14h-4V4zm7 0h3v14h-3V4z"/>
      <path fill="#ff6b09" style="fill:var(--color2, #ff6b09)" d="M6 27v4H5v-2H3v2H2v-4h1v1h2v-1h1zm5 3v1H8v-4h3-3v1h2v1H8v1h3zm1-3h1v3h2v1h-3v-4zm5 0h1v3h2v1h-3v-4zm4 0h1v4h-1v-4zm4 4-1-1v-1l1 1h1v-1h-1l-1-1v-1h3v1l-1-1h-1v1h1l1 1v1h-1l-1 1zm7-4v4-2h-2v2h-1v-4h1v1h2v-1z"/>
      <path fill="#111518" style="fill:var(--color1, #111518)" d="M40 30v1h-3v-4h3-2v1h2v1h-2v1h2zm6-3v4h-1l-2-3v3h-1v-4h1l2 2v-2h1zm4 2h1v1l-1 1h-1l-1-1-1-1 1-1v-1h3v1l-1-1h-1l-1 1v1l1 1h1v-1zm3-2h1v3h2v1h-3v-4zm4 0h1v4h-1v-4zm5 4h-1l-1-1v-1l1 1h1v-1h-1l-1-1v-1h3v1l-1-1h-1v1h2v2l-1 1zm7-4v4h-1v-2h-2v2h-1v-4h1v1h2v-1h1zM74 15v3H64V5h10v3h-7v2h6v3h-6v2h7zM89 5v13h-3l-5-7v7h-4V5h3l6 7V5h3z"/>
      <path fill="#ff6b09" style="fill:var(--color2, #ff6b09)" d="m59 11-1-1-1-4h-1c0-1 0 0 0 0v4l-1 4-1-4V9c0-3-1-4-2-5l-1-4c-2 1-2 4-2 6l1 1-1 4v1-1c0-3-3-4-3-4h-1v5l-1 4c1 6 9 7 13 4l2-2v-7zm-12 5-1 1v-2h1v1zm0-3-1 1v-2h1v1zM56 4l1-1v1h-1zM45 6l-1-1h1v1z"/>
    </symbol>
  <!-- HEADER -->
    <symbol id="icon-menu" viewBox="0 0 53 32">
      <path stroke-linecap="round" stroke-width="4.6" d="M2 2h48M2 16h48M2 30h48"/>
    </symbol>
    <symbol id="icon-close" viewBox="0 0 30 32">
      <path stroke-linecap="round" stroke-width="3.6" d="M2 29 28 3M28 29 2 3"/>
    </symbol>
    <!-- ADVANTAGES -->
    <symbol id="icon-advantages-1" viewBox="0 0 27 32">
      <path d="M0 32h27c1-3 0-9-2-11l-4-2v-2l-3-3 1-1 1-1v-2a1 1 0 0 0 0-2c1-3-1-6-1-6l-6-2C8 1 6 5 7 9v1l1 2 1 1 1 2v2l-8 4s-2 3-2 10v1zm26-1h-4v-2l3-7 1 9zm-6-13c0 2-1 1-2 3v-2l-1-3v-1h1l2 3zm-9-2a5 5 0 0 0 5 0l1 3-3 3-4-4h1v-2zm-1-4V7l1-2 7 5v2a4 4 0 0 1-8 0zm-1 7 5 5 3-4v1l-3 4-6-6h1zm10-8V9v2zM13 1s3 0 5 2c0 0 2 2 1 5l-1-4-1 1 1 4-6-5c-1 0-2 0-3 2v2H8c0-3 1-6 5-7zM8 9l1 1v1l-1-1V9zm0 10 6 8 4-5 2 1-1-1 1-1 1-1 3 1-3 8v2H6v-2l-3-8 5-2zm-5 3 3 7v2H1c0-2 0-7 2-9z"/>
    </symbol>
    <symbol id="icon-advantages-2" viewBox="0 0 33 32">
      <path d="M30 0H14l-1 2v6L1 13v1l1 1v9l-1 2v1h3v-1l-1-2v-9l1 1v4c0 2 4 3 9 3v8l1 1h16l2-2V2l-2-2zM4 26H2a1 1 0 1 1 2 0zm26 5H14a1 1 0 0 1-1-1v-2h18v2l-1 1zm1-4H13v-4c2 0 9-1 9-3v-4l3-2v-1L13 8V5h18v22zm-18-9-8 1v-3l8-2 8 2v3l-8-1zm0-16 1-1h16l1 1v2H13V2zm0 7 11 5-3 1-8-2-8 2-3-1 11-5zM5 20l8-1 8 1s-3 2-8 2-8-1-8-2z"/>
      <path d="M22 28a1 1 0 1 0 0 3 1 1 0 0 0 0-3zm0 2v-1 1zM24 2h-3v1h3V2z"/>
    </symbol>
    <symbol id="icon-advantages-3" viewBox="0 0 28 32">
      <path d="M1 14H0a14 14 0 0 1 27 0c0-5-8-5-8 0h-1c0-5-8-5-8 0H9c0-5-8-5-8 0zm8-2 1-8 2-3C6 1 2 6 1 11c2-3 6-2 8 1zm9 0-1-8c-2-5-5-5-6 0l-1 8c1-3 6-3 8 0zm9-1C26 6 21 1 15 1l2 3 1 8c2-3 7-4 9-1zM12 20v-3l-1 2 1 1zm0 1-1-2 1-3v5zM16 24v3-3zm-1-1c1 1 2 1 2 3l-2 2v-5z"/>
      <path d="M16 14c2 1 4 2 4 5 0 2-4 2-4 0v-2 4c2 1 4 2 4 5 0 2-2 4-4 4 0 3-4 3-4 0l-3-1-2-3c0-3 4-3 4 0l1 1v-4c-2-1-5-2-5-4 0-3 3-4 5-5 0-2 4-2 4 0zm-4 0v1c-2 0-4 1-4 4 0 2 3 3 4 4v5l-1-2c0-2-3-2-3 0l1 2 3 2c0 2 3 2 3 0 2-1 5-2 5-4 0-3-3-4-5-4v-6c1 1 2 1 2 3h3c0-3-3-4-5-4v-1c0-2-3-2-3 0z"/>
    </symbol>
    <!-- PROBLEMS -->
    <symbol id="icon-campfire-problems" viewBox="0 0 28 32">
      <path d="m29 22-2-3c-2-2-2-7-2-8h-1c-3 3-2 7-1 8v2c1 4-1 6-1 6h-1l-1-8v-2c0-4-3-7-4-8-2-3-2-8-2-8l-1-1c-4 2-3 8-3 11l1 2v8l-1 2-1-1c0-6-6-8-6-8v1c-1 0-1 0 0 0v3l-1 6c-2 4-1 8-1 8 1 11 16 13 25 7l3-3c3-4 1-11 0-14zM5 32l-1 1v-4h1v3zm0-5-1-1v-2l1-1 1 1-1 3zM24 9V8l1-2h1v1l-1 1-1 1zM1 12l-1-2V9h1l1 3H1z"/>
    </symbol>
    <!-- HOW DO WE -->
    <symbol id="icon-how-do-we-1" viewBox="0 0 30 32">
      <path d="m30 5-5-5H3v30l2 2h1l2-2 2 2 2-2 2 2h1l2-2 2 2 2-2 2 2 2-2 2 2h1l2-2V5zm-5-4 4 4h-4V1zm4 28-1 2-2-2h-1l-2 2-2-2-2 2-2-2h-1l-2 2-2-2-2 2-2-2-2 2-2-2V1h21v4h4v24zM6 3h10H6z"/>
      <path d="M6 5h15V4H6v1zM6 7v9h22V7l-1-1H6v1zm6 0h15v2H12V7zm0 3h15v2H12v-2zm0 3h15v2H12v-2zM6 7h5v2H6V7zm0 3h5v2H6v-2zm0 3h5v2H6v-2zM27 17H6v10-3h5v3h1v-3h15v3h1v-9l-1-1zm-16 6H6v-2h5v2zm0-3H6v-2h5v2zm16 3H12v-2h15v2zm0-3H12v-2h15v2zM2 0v30V0zM0 0v30h1V0H0z"/>
    </symbol>
    <symbol id="icon-how-do-we-2" viewBox="0 0 31 32">
      <path d="M29 0H14l-2 2v6L0 13v1l2 1v9l-2 2v1h4v-1l-2-2v-9l2 1v4c0 2 4 3 8 3v8l2 1h15l2-2V2l-2-2zM3 26H1a1 1 0 0 1 2 0zm26 5H14a1 1 0 0 1-1-1v-2h18v2l-2 1zm2-4H13v-4c2 0 8-1 8-3v-4l3-2v-1L13 8V5h18v22zm-19-9-8 1 1-3 7-2 8 2v3l-8-1zm1-16 1-1h15l2 1v2H13V2zm-1 7 11 5-2 1-9-1-8 1-3-1 11-5zM4 20l8-1 8 1s-3 2-8 2-8-1-8-2z"/>
      <path d="m22 28-2 1 2 2 1-2-1-1zm0 2-1-1h1v1zM23 2h-3v1h3V2z"/>
    </symbol>
    <symbol id="icon-how-do-we-3" viewBox="0 0 43 32">
      <path d="M19 5H5v1h14V5zM19 8H7v1h12V8zM19 12H5v1h14v-1zM19 16H7v1h12v-1zM19 20H5v1h14v-1zM19 24H7v1h12v-1zM38 5H24v1h14V5zM36 8H24v1h12V8zM38 12H24v1h14v-1zM36 16H24v1h12v-1zM38 20H24v1h14v-1zM36 24H24v1h12v-1z"/>
      <path d="M43 3h-2V1l-1-1H25l-3 2-4-2H3L2 1v2H1L0 4v27l1 1h42V3zM25 1h15v28H22V4c0-2 1-3 3-3zM3 1h15c2 0 3 1 3 3v25H3V1zM1 4h1v25l1 1h16l2 1H1V4zm41 27H22l2-1h16l1-1V4h1v27z"/>
    </symbol>
    <symbol id="icon-how-do-we-4" viewBox="0 0 32 32">
      <path d="M2 13v3a11 11 0 0 0 9 2 12 12 0 0 0 10 0c3 1 6 0 9-2v-3l-1-1-3-3 1-4c1-2-1-4-4-4l-3 1a4 4 0 0 0-4-2h-1l-3 2-3-1C5 1 3 5 6 9l-3 3-1 1zm19 4a11 11 0 0 1-12-1v-3l5-3 2 1 2-1 4 3h1v3l-2 1zm8-5v3c-2 2-4 2-7 2l1-1h1v-3l-1-1-2-2 2 1 2-1 4 2zM23 2l3 2-2-1h-1l-2 2-1-1V3l3-1zm-3 4 4-2 2 1c0 2-1 5-3 5l-3-3V6zm1 3-1 1-1-1 1-1 1 1zm-2-3c0 2-2 4-3 4-2 0-3-3-3-5l4-2 3 1-1 2zm-3-5c3 0 3 2 3 2l-2-1h-1a4 4 0 0 1-4 2c1-2 2-3 4-3zm-4 7 1 1-1 1V8zM9 2l3 1v1l-2-1H9L6 5c0-2 1-3 3-3zM6 6l3-2 2 1 1 2-2 2-1 1c-2 0-3-3-3-4zm-3 7v-1l4-2 2 1 2-1-2 2-1 1v3h1l1 1c-3 0-5 0-7-2v-2z"/>
      <path d="M31 21h-2l-6 3c0-2-1-2-2-2h-4c-1-2-4-3-6-3H7v-1H0v12h7v-2a28 28 0 0 0 9 4c5 0 14-7 15-8a2 2 0 0 0 0-3zM6 29H1V19h5v10zm24-6v1a50 50 0 0 1-14 7l-9-4v-7h4l6 2v1h4a1 1 0 0 1 0 2h-7v1h7l2-1 6-3h2v1h-1zM16 12v1-1zM16 14v1-1zM16 16v1-1z"/>
    </symbol>
    <symbol id="icon-how-do-we-5" viewBox="0 0 29 32">
      <path d="M0 32h28c1-3 0-8-2-11l-4-2v-2l-3-3v-1l1-1 1-2a1 1 0 0 0-1-1c2-4 0-7-1-7-2-2-6-2-6-2-4 1-6 5-5 9l-1 1 1 2 1 1 1 3v1l-8 4s-2 3-2 11zm28-1h-5v-2l3-7 2 9zm-7-13c0 2-1 1-2 3v-2l-1-3v-1l3 3zm-10-2a5 5 0 0 0 6 1l1 2h-1l-3 4-4-5h1v-2zm-1-4V7l2-2 6 5v2c0 3-1 4-4 4a4 4 0 0 1-4-4zm-1 7 5 5 4-3-4 5-5-7zm11-8V9v2zM14 1l5 2 1 5-2-3 1 4-7-5s-2 0-3 2v2c-1-3 0-6 4-7zM9 9v2l-1-1 1-1zM8 19l6 8 5-5 1 1v-2l2-1 3 2-3 7v2H7v-2l-4-7 5-3zm-5 3 3 7v2H1c0-2 0-6 2-9z"/>
    </symbol>
    <symbol id="icon-how-do-we-6" viewBox="0 0 37 32">
      <path d="M2 30h13l3 2h1l3-2h13c1 0 2-1 2-3V5l-2-2h-1V2l-2-2H5L4 2v1H2L0 5v22c0 2 1 3 2 3zm30-5H19V7c3 0 6 3 6 6h-1a1 1 0 0 0-1 1l-1 6 1 1h3l2-1v-4c1-1 0-2-1-2h-1v-1c0-4-3-7-7-8V2h13v23zm-7-10 2 1-1 3v1l-2-1 1-4zM5 2h13v3c-4 1-7 4-7 8v1h-1l-1 1v5a2 2 0 0 0 3 1h2l1-1-1-6h-1v-1c0-3 2-6 5-6v18H5V2zm7 13 1 4-2 1v-1l-1-3 2-1zM2 5V4h2v21l1 2h27l2-2V4h1l1 1v22l-1 1H22l-1 1-2 1h-1l-2-1-1-1H2V5z"/>
    </symbol>
    <!-- TEACHER -->
    <symbol id="icon-teacher" viewBox="0 0 40 32">
      <path d="m35 2-4 2-8 6-7 7-2 4L4 6 0 17l13 15 4-7 1-2 2-3A81 81 0 0 1 32 5a29 29 0 0 1 8-5l-5 2z"/>
    </symbol>
    <!-- GUARANT -->
    <symbol id="icon-campfire-guarant" viewBox="0 0 23 32">
      <path d="m22 17-1-2c-2-2-2-6-2-6l-1-1c-2 2-1 5-1 7l1 1-1 4h-1v-7l-4-6-2-7C7 2 7 6 8 8v8l-1 1v-1c0-4-4-5-4-5l-1 1v2l-1 4-1 6c1 9 13 10 20 5l2-1c3-4 1-9 0-11zM4 24l-1 1v-3h1v2zm0-4v1l-1-1v-2h1v2zM19 7l-1-1 1-2h1v1l-1 1v1zM1 9 0 8V7h1l1 2H1z"/>
    </symbol>
    <!-- FEEDBACK -->
    <symbol id="icon-arrow-lf" viewBox="0 0 54 32">
      <path d="M52 14a2 2 0 1 1 0 4v-4zM1 17v-2L13 2a2 2 0 1 1 3 3L5 16l11 11a2 2 0 1 1-3 3L1 17zm51 1H2v-4h50v4z"/>
    </symbol>
    <symbol id="icon-arrow-rt" viewBox="0 0 54 32">
      <path d="M2 14a2 2 0 1 0 0 4v-4zm51 3v-2L41 2a2 2 0 1 0-3 3l11 11-11 11a2 2 0 1 0 3 3l12-13zM2 18h50v-4H2v4z"/>
    </symbol>
    <symbol id="icon-facebook" viewBox="0 0 31 32">
      <path d="M26 2H5L3 3 2 5v22l1 2 2 1h8V20H9v-4h4v-3c0-4 2-6 6-6h3v4h-2l-2 2v3h4l-1 4h-3v10h8l2-1 1-2V5l-1-2-2-1z"/>
    </symbol>
    <!-- FOOTER -->
    <symbol id="icon-insta-white" viewBox="0 0 32 32">
      <path d="M1 10V8c1-4 3-7 8-7h14c5 0 8 3 8 8v14c0 5-3 8-8 8H9c-5 0-8-3-8-8V10zm15 18h7c3 0 6-2 6-5V9c0-3-3-5-6-5H9C6 4 4 6 3 9v14c1 3 3 5 6 5h7z"/>
      <path d="M16 8a8 8 0 1 0 0 16 8 8 0 0 0 0-16zm0 13a5 5 0 1 1 0-10 5 5 0 0 1 0 10zM26 8a2 2 0 1 1-4 0 2 2 0 0 1 4 0z"/>
    </symbol>
    <symbol id="icon-phone" viewBox="0 0 32 32">
      <path d="M5 0 3 1 1 4H0c-1 3 0 7 2 11l8 10c3 3 6 5 10 6 4 3 6 1 9 0v-1l2-3v-3l-6-5h-3l-2 3c-3-1-5-2-6-4l-4-6 2-3V6L6 1 5 0zm0 1v1l6 5v1l-3 4a1 1 0 0 0 0 1l5 6c2 2 4 4 7 4l3-3h1l7 5v2l-3 2c-2 2-5 2-8 1s-7-3-10-6L3 14C1 11 1 7 2 4l2-2 1-1z"/>
    </symbol>
  </defs>
</svg>