<svg aria-hidden="true" style="position:absolute;width:0;height:0;overflow:hidden" xmlns="http://www.w3.org/2000/svg">
  <defs>
  <!-- LOGO -->

      <symbol id="icon-logo" viewBox="0 0 91 32">
      <path fill="#111518" style="fill:var(--color1, #111518)" d="M14 5v13h-4v-5H5v5H1V5h4v5h5V5h4zm13 8v1h-7l1 1h2l1-1 2 2-4 2-3-1-2-2-1-2a5 5 0 0 1 3-5h5l2 2 1 3zm-5-3-2 1v1h4l-1-1-1-1zm7-6h4v14h-4V4zm7 0h3v14h-3V4z"/>
      <path fill="#ff6b09" style="fill:var(--color2, #ff6b09)" d="M6 27v4H5v-2H3v2H2v-4h1v1h2v-1h1zm5 3v1H8v-4h3-3v1h2v1H8v1h3zm1-3h1v3h2v1h-3v-4zm5 0h1v3h2v1h-3v-4zm4 0h1v4h-1v-4zm4 4-1-1v-1l1 1h1v-1h-1l-1-1v-1h3v1l-1-1h-1v1h1l1 1v1h-1l-1 1zm7-4v4-2h-2v2h-1v-4h1v1h2v-1z"/>
      <path fill="#111518" style="fill:var(--color1, #111518)" d="M40 30v1h-3v-4h3-2v1h2v1h-2v1h2zm6-3v4h-1l-2-3v3h-1v-4h1l2 2v-2h1zm4 2h1v1l-1 1h-1l-1-1-1-1 1-1v-1h3v1l-1-1h-1l-1 1v1l1 1h1v-1zm3-2h1v3h2v1h-3v-4zm4 0h1v4h-1v-4zm5 4h-1l-1-1v-1l1 1h1v-1h-1l-1-1v-1h3v1l-1-1h-1v1h2v2l-1 1zm7-4v4h-1v-2h-2v2h-1v-4h1v1h2v-1h1zM74 15v3H64V5h10v3h-7v2h6v3h-6v2h7zM89 5v13h-3l-5-7v7h-4V5h3l6 7V5h3z"/>
      <path fill="#ff6b09" style="fill:var(--color2, #ff6b09)" d="m59 11-1-1-1-4h-1c0-1 0 0 0 0v4l-1 4-1-4V9c0-3-1-4-2-5l-1-4c-2 1-2 4-2 6l1 1-1 4v1-1c0-3-3-4-3-4h-1v5l-1 4c1 6 9 7 13 4l2-2v-7zm-12 5-1 1v-2h1v1zm0-3-1 1v-2h1v1zM56 4l1-1v1h-1zM45 6l-1-1h1v1z"/>
    </symbol>
  <!-- HEADER -->

    <symbol id="icon-logo" viewBox="0 0 91 32">
<path fill="#111518" style="fill: var(--color1, #111518)" d="M13.608 4.836v12.942h-3.661v-5.047h-4.992v5.047h-3.661v-12.942h3.661v4.863h4.992v-4.863h3.661zM27.006 12.786c0 0.025-0.018 0.314-0.055 0.869h-7.285c0.148 0.518 0.431 0.918 0.851 1.202 0.431 0.271 0.968 0.407 1.609 0.407 0.481 0 0.894-0.068 1.239-0.203 0.357-0.136 0.715-0.357 1.072-0.666l1.849 1.923c-0.974 1.085-2.397 1.627-4.271 1.627-1.171 0-2.2-0.222-3.088-0.666s-1.578-1.060-2.071-1.849c-0.481-0.789-0.721-1.683-0.721-2.681 0-0.986 0.234-1.867 0.703-2.644 0.481-0.789 1.14-1.405 1.978-1.849s1.781-0.666 2.829-0.666c0.998 0 1.904 0.21 2.718 0.629 0.814 0.407 1.454 1.005 1.923 1.793 0.481 0.777 0.721 1.701 0.721 2.773zM21.663 10.086c-0.542 0-0.998 0.154-1.368 0.462-0.357 0.308-0.586 0.727-0.684 1.257h4.105c-0.099-0.53-0.333-0.949-0.703-1.257-0.357-0.308-0.807-0.462-1.35-0.462zM29.365 4.059h3.513v13.719h-3.513v-13.719zM35.901 4.059h3.513v13.719h-3.513v-13.719z"></path>
<path fill="#ff6b09" style="fill: var(--color2, #ff6b09)" d="M5.547 26.596v3.982h-0.922v-1.633h-1.809v1.633h-0.922v-3.982h0.922v1.57h1.809v-1.57h0.922zM10.596 29.838v0.74h-3.083v-3.982h3.009v0.74h-2.094v0.865h1.849v0.717h-1.849v0.922h2.167zM12.354 26.596h0.922v3.231h1.997v0.751h-2.918v-3.982zM16.811 26.596h0.922v3.231h1.997v0.751h-2.918v-3.982zM21.268 26.596h0.922v3.982h-0.922v-3.982zM25.467 30.646c-0.315 0-0.62-0.042-0.916-0.125-0.292-0.087-0.527-0.199-0.705-0.336l0.313-0.694c0.171 0.125 0.374 0.226 0.609 0.302s0.47 0.114 0.705 0.114c0.262 0 0.455-0.038 0.58-0.114 0.125-0.080 0.188-0.184 0.188-0.313 0-0.095-0.038-0.173-0.114-0.233-0.072-0.064-0.167-0.116-0.284-0.154-0.114-0.038-0.269-0.080-0.466-0.125-0.303-0.072-0.552-0.144-0.745-0.216s-0.36-0.188-0.501-0.347c-0.137-0.159-0.205-0.372-0.205-0.637 0-0.231 0.063-0.44 0.188-0.626 0.125-0.19 0.313-0.339 0.563-0.449 0.254-0.11 0.563-0.165 0.927-0.165 0.254 0 0.502 0.030 0.745 0.091s0.455 0.148 0.637 0.262l-0.284 0.7c-0.368-0.209-0.736-0.313-1.104-0.313-0.258 0-0.449 0.042-0.575 0.125-0.121 0.083-0.182 0.193-0.182 0.33s0.070 0.239 0.21 0.307c0.144 0.064 0.362 0.129 0.654 0.193 0.303 0.072 0.552 0.144 0.745 0.216s0.358 0.186 0.495 0.341c0.14 0.156 0.21 0.366 0.21 0.631 0 0.228-0.064 0.436-0.193 0.626-0.125 0.186-0.315 0.334-0.569 0.444s-0.563 0.165-0.927 0.165zM32.463 26.596v3.982h-0.922v-1.633h-1.809v1.633h-0.922v-3.982h0.922v1.57h1.809v-1.57h0.922z"></path>
<path fill="#111518" style="fill: var(--color1, #111518)" d="M40.148 29.838v0.74h-3.083v-3.982h3.009v0.74h-2.093v0.865h1.849v0.717h-1.849v0.922h2.167zM45.557 26.596v3.982h-0.757l-1.985-2.418v2.418h-0.91v-3.982h0.762l1.98 2.418v-2.418h0.91zM50.214 28.524h0.842v1.616c-0.216 0.163-0.467 0.288-0.751 0.375s-0.571 0.131-0.859 0.131c-0.413 0-0.785-0.087-1.115-0.262-0.33-0.178-0.59-0.423-0.779-0.734-0.186-0.315-0.279-0.669-0.279-1.064s0.093-0.747 0.279-1.058c0.19-0.315 0.451-0.559 0.785-0.734 0.334-0.178 0.709-0.267 1.126-0.267 0.349 0 0.666 0.059 0.95 0.176s0.523 0.288 0.717 0.512l-0.592 0.546c-0.284-0.3-0.628-0.449-1.030-0.449-0.254 0-0.48 0.053-0.677 0.159s-0.351 0.256-0.461 0.449c-0.11 0.193-0.165 0.415-0.165 0.666 0 0.247 0.055 0.466 0.165 0.66s0.262 0.345 0.455 0.455c0.197 0.106 0.421 0.159 0.671 0.159 0.266 0 0.504-0.057 0.717-0.171v-1.166zM52.936 26.596h0.922v3.231h1.997v0.751h-2.918v-3.982zM57.394 26.596h0.922v3.982h-0.922v-3.982zM61.593 30.646c-0.315 0-0.62-0.042-0.916-0.125-0.292-0.087-0.527-0.199-0.705-0.336l0.313-0.694c0.171 0.125 0.374 0.226 0.609 0.302s0.47 0.114 0.705 0.114c0.262 0 0.455-0.038 0.58-0.114 0.125-0.080 0.188-0.184 0.188-0.313 0-0.095-0.038-0.173-0.114-0.233-0.072-0.064-0.167-0.116-0.284-0.154-0.114-0.038-0.269-0.080-0.467-0.125-0.303-0.072-0.552-0.144-0.745-0.216s-0.36-0.188-0.501-0.347c-0.137-0.159-0.205-0.372-0.205-0.637 0-0.231 0.063-0.44 0.188-0.626 0.125-0.19 0.313-0.339 0.563-0.449 0.254-0.11 0.563-0.165 0.927-0.165 0.254 0 0.503 0.030 0.745 0.091s0.455 0.148 0.637 0.262l-0.284 0.7c-0.368-0.209-0.736-0.313-1.104-0.313-0.258 0-0.449 0.042-0.575 0.125-0.121 0.083-0.182 0.193-0.182 0.33s0.070 0.239 0.211 0.307c0.144 0.064 0.362 0.129 0.654 0.193 0.303 0.072 0.552 0.144 0.745 0.216s0.358 0.186 0.495 0.341c0.14 0.156 0.211 0.366 0.211 0.631 0 0.228-0.064 0.436-0.193 0.626-0.125 0.186-0.315 0.334-0.569 0.444s-0.563 0.165-0.927 0.165zM68.588 26.596v3.982h-0.922v-1.633h-1.809v1.633h-0.922v-3.982h0.922v1.57h1.809v-1.57h0.922z"></path>
<path fill="#111518" style="fill: var(--color1, #111518)" d="M74.263 14.949v2.829h-10.391v-12.942h10.15v2.829h-6.527v2.182h5.75v2.736h-5.75v2.367h6.767zM89.348 4.836v12.942h-3.014l-5.713-6.896v6.896h-3.587v-12.942h3.014l5.713 6.896v-6.896h3.587z"></path>
<path fill="#ff6b09" style="fill: var(--color2, #ff6b09)" d="M58.695 11.062c-0.189-0.423-0.45-0.84-0.831-1.322-0.962-1.209-1.255-3.905-1.258-3.931-0.013-0.129-0.104-0.236-0.225-0.275-0.124-0.039-0.257-0.003-0.345 0.094-1.147 1.283-0.665 3.265-0.404 4.057 0.072 0.217 0.15 0.472 0.205 0.731 0.424 2.091-0.394 3.038-0.587 3.229-0.186 0.052-0.313 0.026-0.43-0.1-0.404-0.443-0.538-1.894-0.349-3.785 0.039-0.385 0.029-0.731-0.026-1.054-0.399-2.324-1.86-3.815-2.233-4.338-1.023-1.513-1.128-4.031-1.131-4.053-0.003-0.12-0.072-0.226-0.179-0.278-0.104-0.052-0.231-0.045-0.329 0.023-1.708 1.16-1.561 3.956-1.323 5.518 0.055 0.362 0.163 0.731 0.349 1.196 0.662 1.665-0.13 3.814-0.137 3.834s-0.013 0.036-0.016 0.055c-0.101 0.53-0.271 0.847-0.46 0.847-0.020 0-0.039-0.003-0.062-0.010-0.231-0.049-0.352-0.294-0.355-0.507-0.013-2.757-2.78-3.685-2.809-3.695-0.124-0.039-0.261-0.003-0.345 0.097-0.088 0.1-0.104 0.239-0.046 0.356 0.033 0.068 0.137 0.365 0.065 1.416-0.062 0.944-0.235 1.878-0.512 2.773-0.658 2.146-0.554 4.179-0.548 4.276 0.506 5.505 8.423 6.469 13.122 3.368 0.515-0.339 0.935-0.727 1.245-1.154 1.734-2.392 0.714-5.64-0.046-7.366zM46.652 16.321c0.010 0.178-0.127 0.33-0.306 0.339h-0.020c-0.173 0-0.316-0.133-0.326-0.304-0.029-0.472-0.023-0.966 0.013-1.503 0.013-0.178 0.169-0.31 0.349-0.301 0.179 0.013 0.316 0.168 0.303 0.346-0.036 0.511-0.042 0.976-0.013 1.422zM46.812 13.457c-0.020 0.165-0.16 0.284-0.323 0.284-0.013 0-0.026 0-0.042-0.003-0.176-0.023-0.303-0.181-0.284-0.359l0.156-1.248c0.023-0.175 0.183-0.301 0.365-0.281 0.179 0.023 0.306 0.184 0.284 0.362l-0.156 1.245z"></path>
<path fill="#ff6b09" style="fill: var(--color2, #ff6b09)" d="M56.49 4.422c-0.178-0.027-0.3-0.192-0.272-0.368 0.020-0.131 0.138-0.804 0.458-1.142 0.123-0.13 0.329-0.137 0.461-0.015s0.138 0.327 0.015 0.457c-0.135 0.143-0.25 0.553-0.289 0.798-0.028 0.174-0.191 0.297-0.372 0.27z"></path>
<path fill="#ff6b09" style="fill: var(--color2, #ff6b09)" d="M44.608 6.032c-0.062-0.24-0.217-0.637-0.366-0.766-0.135-0.118-0.149-0.322-0.030-0.456s0.324-0.148 0.46-0.030c0.351 0.305 0.535 0.963 0.568 1.092 0.045 0.173-0.060 0.349-0.235 0.393-0.178 0.044-0.353-0.063-0.397-0.232z"></path>
</symbol>

<!-- HEADER -->

    <symbol id="icon-menu" viewBox="0 0 53 32">
      <path stroke-linecap="round" stroke-width="4.6" d="M2 2h48M2 16h48M2 30h48"/>
    </symbol>
    <symbol id="icon-close" viewBox="0 0 30 32">
      <path stroke-linecap="round" stroke-width="3.6" d="M2 29 28 3M28 29 2 3"/>
    </symbol>
    <!-- ADVANTAGES -->
    <symbol id="icon-advantages-1" viewBox="0 0 32 32">
      <path d="M7 26h17l-1-7-3-1v-1l-1-2v-1a1 1 0 0 0 0-1l1-1a1 1 0 0 0-1-1V7c-2-2-4-1-4-1-3 0-4 3-3 5a1 1 0 0 0 0 1v1l1 1v2l-4 3s-2 2-2 7zm17-1h-3v-1l2-4 1 5zm-4-8-1 2-1-1v-3l2 2zm-6-1a3 3 0 0 0 3 0l1 1a2 2 0 0 0 0 1l-2 2-3-3h1v-1zm-1-3v-3l1-1 4 3v2l-2 2a3 3 0 0 1-3-3zm0 4 3 4 2-2-2 3-4-4 1-1zm6-4v-1 1zm-4-7s2 0 3 2l1 2-1-1 1 2-5-3-1 2v1h-1c0-2 1-4 3-5zm-3 6h1v1l-1-1zm0 6 4 5 2-4 1 1v-1l1-1 2 1-2 5v1h-9v-1l-2-5 3-1zm-3 2 2 4v1H8l1-5z"/>
      <path d="M31 5V1H1v30h30v-4"/>
    </symbol>
    <symbol id="icon-advantages-2" viewBox="0 0 32 32">
      <path d="M25 5H15l-1 1v5l-8 3 1 1v6a1 1 0 0 0-1 1v1h2v-1l-1-1v-6l1 1v3l6 1v5a1 1 0 0 0 1 1h10l2-1V6l-2-1zM8 22v1H6v-1a1 1 0 1 1 2 0zm17 4H15a1 1 0 0 1-1-1v-1h12v1a1 1 0 0 1-1 1zm1-3H14v-3l6-1v-3l2-2-8-3V9h12v14zm-12-6-5 1v-2l5-1 5 1v2l-5-1zm0-11h12v2H14V6zm0 5 7 3-2 1-5-1-6 1-2-1 8-3zm-5 8 5-1 5 1-5 1-5-1z"/>
      <path d="m20 24-1 1a1 1 0 0 0 2 0 1 1 0 0 0-1-1zm0 1v-1 1zm1-18h-2 2z"/>
      <path d="M31 5V1H1v30h30v-4"/>
    </symbol>
    <symbol id="icon-advantages-3" viewBox="0 0 32 32">
      <path d="M8 15H7c0-5 4-9 9-9s9 4 9 9c0-4-6-4-6 0 0-4-6-4-6 0 0-4-5-4-5 0zm5-2 1-5 1-2c-4 0-7 3-7 7 1-2 4-2 5 0zm6 0-1-5c-1-3-3-3-4 0v5c1-2 4-2 5 0zm6 0c-1-4-4-7-8-7l2 2v5c1-2 4-2 6 0zm-10 6v-2l-1 1 1 1zm0 0-1-1 1-2v3zm2 2v2l1-1-1-1zm0 0 1 1-1 2v-3z"/>
      <path d="M17 15c2 0 3 1 3 3h-2l-1-1v2l3 3c0 2-1 3-3 3 0 2-2 2-2 0l-2-1-1-2h2l1 1v-2l-3-3c0-2 2-3 3-3 0-2 2-2 2 0zm-2 0c-1 0-3 1-3 3l3 2v4l-1-2h-2l1 2 2 1h2c1 0 3-1 3-3l-3-2v-4l1 2h2c0-2-2-3-3-3h-2z"/>
      <path d="M31 5V1H1v30h30v-4"/>
    </symbol>
    <!-- PROBLEM -->
    <symbol id="icon-campfire-problem" viewBox="0 0 28 32">
      <path d="m29 22-2-3c-2-2-2-7-2-8h-1c-3 3-2 7-1 8v2c1 4-1 6-1 6h-1l-1-8v-2c0-4-3-7-4-8-2-3-2-8-2-8l-1-1c-4 2-3 8-3 11l1 2v8l-1 2-1-1c0-6-6-8-6-8v1c-1 0-1 0 0 0v3l-1 6c-2 4-1 8-1 8 1 11 16 13 25 7l3-3c3-4 1-11 0-14zM5 32l-1 1v-4h1v3zm0-5-1-1v-2l1-1 1 1-1 3zM24 9V8l1-2h1v1l-1 1-1 1zM1 12l-1-2V9h1l1 3H1z"/>
    </symbol>
    <!-- HOW DO WE -->
    <symbol id="icon-how-do-we-1" viewBox="0 0 30 32">
      <path d="m30 5-5-5H3v30l2 2h1l2-2 2 2 2-2 2 2h1l2-2 2 2 2-2 2 2 2-2 2 2h1l2-2V5zm-5-4 4 4h-4V1zm4 28-1 2-2-2h-1l-2 2-2-2-2 2-2-2h-1l-2 2-2-2-2 2-2-2-2 2-2-2V1h21v4h4v24zM6 3h10H6z"/>
      <path d="M6 5h15V4H6v1zM6 7v9h22V7l-1-1H6v1zm6 0h15v2H12V7zm0 3h15v2H12v-2zm0 3h15v2H12v-2zM6 7h5v2H6V7zm0 3h5v2H6v-2zm0 3h5v2H6v-2zM27 17H6v10-3h5v3h1v-3h15v3h1v-9l-1-1zm-16 6H6v-2h5v2zm0-3H6v-2h5v2zm16 3H12v-2h15v2zm0-3H12v-2h15v2zM2 0v30V0zM0 0v30h1V0H0z"/>
    </symbol>
    <symbol id="icon-how-do-we-2" viewBox="0 0 31 32">
      <path d="M29 0H14l-2 2v6L0 13v1l2 1v9l-2 2v1h4v-1l-2-2v-9l2 1v4c0 2 4 3 8 3v8l2 1h15l2-2V2l-2-2zM3 26H1a1 1 0 0 1 2 0zm26 5H14a1 1 0 0 1-1-1v-2h18v2l-2 1zm2-4H13v-4c2 0 8-1 8-3v-4l3-2v-1L13 8V5h18v22zm-19-9-8 1 1-3 7-2 8 2v3l-8-1zm1-16 1-1h15l2 1v2H13V2zm-1 7 11 5-2 1-9-1-8 1-3-1 11-5zM4 20l8-1 8 1s-3 2-8 2-8-1-8-2z"/>
      <path d="m22 28-2 1 2 2 1-2-1-1zm0 2-1-1h1v1zM23 2h-3v1h3V2z"/>
    </symbol>
    <symbol id="icon-how-do-we-3" viewBox="0 0 43 32">
      <path d="M19 5H5v1h14V5zM19 8H7v1h12V8zM19 12H5v1h14v-1zM19 16H7v1h12v-1zM19 20H5v1h14v-1zM19 24H7v1h12v-1zM38 5H24v1h14V5zM36 8H24v1h12V8zM38 12H24v1h14v-1zM36 16H24v1h12v-1zM38 20H24v1h14v-1zM36 24H24v1h12v-1z"/>
      <path d="M43 3h-2V1l-1-1H25l-3 2-4-2H3L2 1v2H1L0 4v27l1 1h42V3zM25 1h15v28H22V4c0-2 1-3 3-3zM3 1h15c2 0 3 1 3 3v25H3V1zM1 4h1v25l1 1h16l2 1H1V4zm41 27H22l2-1h16l1-1V4h1v27z"/>
    </symbol>
    <symbol id="icon-how-do-we-4" viewBox="0 0 32 32">
      <path d="M2 13v3a11 11 0 0 0 9 2 12 12 0 0 0 10 0c3 1 6 0 9-2v-3l-1-1-3-3 1-4c1-2-1-4-4-4l-3 1a4 4 0 0 0-4-2h-1l-3 2-3-1C5 1 3 5 6 9l-3 3-1 1zm19 4a11 11 0 0 1-12-1v-3l5-3 2 1 2-1 4 3h1v3l-2 1zm8-5v3c-2 2-4 2-7 2l1-1h1v-3l-1-1-2-2 2 1 2-1 4 2zM23 2l3 2-2-1h-1l-2 2-1-1V3l3-1zm-3 4 4-2 2 1c0 2-1 5-3 5l-3-3V6zm1 3-1 1-1-1 1-1 1 1zm-2-3c0 2-2 4-3 4-2 0-3-3-3-5l4-2 3 1-1 2zm-3-5c3 0 3 2 3 2l-2-1h-1a4 4 0 0 1-4 2c1-2 2-3 4-3zm-4 7 1 1-1 1V8zM9 2l3 1v1l-2-1H9L6 5c0-2 1-3 3-3zM6 6l3-2 2 1 1 2-2 2-1 1c-2 0-3-3-3-4zm-3 7v-1l4-2 2 1 2-1-2 2-1 1v3h1l1 1c-3 0-5 0-7-2v-2z"/>
      <path d="M31 21h-2l-6 3c0-2-1-2-2-2h-4c-1-2-4-3-6-3H7v-1H0v12h7v-2a28 28 0 0 0 9 4c5 0 14-7 15-8a2 2 0 0 0 0-3zM6 29H1V19h5v10zm24-6v1a50 50 0 0 1-14 7l-9-4v-7h4l6 2v1h4a1 1 0 0 1 0 2h-7v1h7l2-1 6-3h2v1h-1zM16 12v1-1zM16 14v1-1zM16 16v1-1z"/>
    </symbol>
    <symbol id="icon-how-do-we-5" viewBox="0 0 29 32">
      <path d="M0 32h28c1-3 0-8-2-11l-4-2v-2l-3-3v-1l1-1 1-2a1 1 0 0 0-1-1c2-4 0-7-1-7-2-2-6-2-6-2-4 1-6 5-5 9l-1 1 1 2 1 1 1 3v1l-8 4s-2 3-2 11zm28-1h-5v-2l3-7 2 9zm-7-13c0 2-1 1-2 3v-2l-1-3v-1l3 3zm-10-2a5 5 0 0 0 6 1l1 2h-1l-3 4-4-5h1v-2zm-1-4V7l2-2 6 5v2c0 3-1 4-4 4a4 4 0 0 1-4-4zm-1 7 5 5 4-3-4 5-5-7zm11-8V9v2zM14 1l5 2 1 5-2-3 1 4-7-5s-2 0-3 2v2c-1-3 0-6 4-7zM9 9v2l-1-1 1-1zM8 19l6 8 5-5 1 1v-2l2-1 3 2-3 7v2H7v-2l-4-7 5-3zm-5 3 3 7v2H1c0-2 0-6 2-9z"/>
    </symbol>
    <symbol id="icon-how-do-we-6" viewBox="0 0 37 32">
      <path d="M2 30h13l3 2h1l3-2h13c1 0 2-1 2-3V5l-2-2h-1V2l-2-2H5L4 2v1H2L0 5v22c0 2 1 3 2 3zm30-5H19V7c3 0 6 3 6 6h-1a1 1 0 0 0-1 1l-1 6 1 1h3l2-1v-4c1-1 0-2-1-2h-1v-1c0-4-3-7-7-8V2h13v23zm-7-10 2 1-1 3v1l-2-1 1-4zM5 2h13v3c-4 1-7 4-7 8v1h-1l-1 1v5a2 2 0 0 0 3 1h2l1-1-1-6h-1v-1c0-3 2-6 5-6v18H5V2zm7 13 1 4-2 1v-1l-1-3 2-1zM2 5V4h2v21l1 2h27l2-2V4h1l1 1v22l-1 1H22l-1 1-2 1h-1l-2-1-1-1H2V5z"/>
    </symbol>
    <!-- TEACHER -->
    <symbol id="icon-teacher" viewBox="0 0 40 32">
      <path d="m35 2-4 2-8 6-7 7-2 4L4 6 0 17l13 15 4-7 1-2 2-3A81 81 0 0 1 32 5a29 29 0 0 1 8-5l-5 2z"/>
    </symbol>
    <!-- GUARANT -->
    <symbol id="icon-campfire-guarant" viewBox="0 0 23 32">
      <path d="m22 17-1-2c-2-2-2-6-2-6l-1-1c-2 2-1 5-1 7l1 1-1 4h-1v-7l-4-6-2-7C7 2 7 6 8 8v8l-1 1v-1c0-4-4-5-4-5l-1 1v2l-1 4-1 6c1 9 13 10 20 5l2-1c3-4 1-9 0-11zM4 24l-1 1v-3h1v2zm0-4v1l-1-1v-2h1v2zM19 7l-1-1 1-2h1v1l-1 1v1zM1 9 0 8V7h1l1 2H1z"/>
    </symbol>
    <!-- FEEDBACK -->
    <symbol id="icon-arrow-lf" viewBox="0 0 54 32">
      <path d="M52 14a2 2 0 1 1 0 4v-4zM1 17v-2L13 2a2 2 0 1 1 3 3L5 16l11 11a2 2 0 1 1-3 3L1 17zm51 1H2v-4h50v4z"/>
    </symbol>
    <symbol id="icon-arrow-rt" viewBox="0 0 54 32">
      <path d="M2 14a2 2 0 1 0 0 4v-4zm51 3v-2L41 2a2 2 0 1 0-3 3l11 11-11 11a2 2 0 1 0 3 3l12-13zM2 18h50v-4H2v4z"/>
    </symbol>
    <symbol id="icon-facebook" viewBox="0 0 31 32">
      <path d="M26 2H5L3 3 2 5v22l1 2 2 1h8V20H9v-4h4v-3c0-4 2-6 6-6h3v4h-2l-2 2v3h4l-1 4h-3v10h8l2-1 1-2V5l-1-2-2-1z"/>
    </symbol>
    <!-- FOOTER -->
    <symbol id="icon-insta-white" viewBox="0 0 32 32">
      <path d="M1 10V8c1-4 3-7 8-7h14c5 0 8 3 8 8v14c0 5-3 8-8 8H9c-5 0-8-3-8-8V10zm15 18h7c3 0 6-2 6-5V9c0-3-3-5-6-5H9C6 4 4 6 3 9v14c1 3 3 5 6 5h7z"/>
      <path d="M16 8a8 8 0 1 0 0 16 8 8 0 0 0 0-16zm0 13a5 5 0 1 1 0-10 5 5 0 0 1 0 10zM26 8a2 2 0 1 1-4 0 2 2 0 0 1 4 0z"/>
    </symbol>
    <symbol id="icon-phone" viewBox="0 0 32 32">
      <path d="M5 0 3 1 1 4H0c-1 3 0 7 2 11l8 10c3 3 6 5 10 6 4 3 6 1 9 0v-1l2-3v-3l-6-5h-3l-2 3c-3-1-5-2-6-4l-4-6 2-3V6L6 1 5 0zm0 1v1l6 5v1l-3 4a1 1 0 0 0 0 1l5 6c2 2 4 4 7 4l3-3h1l7 5v2l-3 2c-2 2-5 2-8 1s-7-3-10-6L3 14C1 11 1 7 2 4l2-2 1-1z"/>
    </symbol>
  </defs>
</svg>


